<?xml version="1.0" standalone="no"?>
<!DOCTYPE svg PUBLIC "-//W3C//DTD SVG 1.1//EN" "http://www.w3.org/Graphics/SVG/1.1/DTD/svg11.dtd" >
<svg xmlns="http://www.w3.org/2000/svg">
<metadata>
This is a custom SVG webfont generated by Font Squirrel.
</metadata>
<defs>
<font id="webfontWk8Jl3GK" horiz-adv-x="500" >
<font-face units-per-em="1000" ascent="800" descent="-200" />
<missing-glyph horiz-adv-x="300" />
<glyph unicode=" "  horiz-adv-x="300" />
<glyph unicode="&#x09;" horiz-adv-x="300" />
<glyph unicode="&#xa0;" horiz-adv-x="300" />
<glyph unicode="!" horiz-adv-x="271" d="M182 0h-92v105h92v-105zM91 700h90v-57l-24 -445h-43z" />
<glyph unicode="&#x22;" horiz-adv-x="440" d="M260 428l31 272h92v-5l-81 -267h-42zM65 428l30 272h93v-5l-81 -267h-42z" />
<glyph unicode="#" horiz-adv-x="700" d="M654 458h-120l-37 -212h118v-69h-129l-31 -177h-70l30 177h-190l-31 -177h-70l30 177h-109v69h121l37 212h-119v69h130l30 173h70l-29 -173h190l30 173h70l-29 -173h108v-69zM463 458h-190l-36 -212h190z" />
<glyph unicode="$" horiz-adv-x="636" d="M569 189q0 -80 -59 -131.5t-154 -57.5v-98h-64v100q-129 12 -236 103l45 60q94 -84 194 -95v250q-112 27 -162.5 72t-50.5 123q0 77 59 128.5t151 56.5v58h64v-60q100 -9 191 -80l-43 -60q-68 58 -151 72v-246q114 -26 165 -72t51 -123zM295 398v235q-62 -2 -99 -34 t-37 -79q0 -46 27 -72q30 -30 109 -50zM492 184q0 47 -28 73q-31 30 -111 49v-239q63 3 101 35t38 82z" />
<glyph unicode="%" horiz-adv-x="834" d="M369 530q0 -74 -44.5 -127t-114.5 -53q-69 0 -113.5 52.5t-44.5 125.5q0 74 45 127t115 53q69 0 113 -52.5t44 -125.5zM709 700l-513 -700h-72l514 700h71zM781 172q0 -74 -43 -126q-46 -54 -116 -54q-69 0 -113 52.5t-44 125.5q0 74 44.5 127t114.5 53q69 0 113 -52 t44 -126zM303 528q0 53 -27 88.5t-66 35.5q-41 0 -66 -35t-25 -87q0 -53 27 -88.5t66 -35.5q40 0 65.5 35t25.5 87zM715 170q0 53 -27 88.5t-66 35.5q-40 0 -65.5 -35t-25.5 -87q0 -53 27 -88.5t66 -35.5q41 0 66 35t25 87z" />
<glyph unicode="&#x26;" horiz-adv-x="696" d="M664 32l-60 -46l-110 113q-101 -109 -229 -109q-96 0 -158 54.5t-62 142.5q0 137 169 203q-70 82 -70 155q0 71 51.5 119t133.5 48q73 0 121.5 -46t48.5 -113q0 -125 -165 -183l160 -163q45 65 84 156l65 -30q-53 -113 -101 -176zM425 549q0 43 -28 70.5t-71 27.5 q-47 0 -76.5 -29t-29.5 -73q0 -55 70 -130q135 46 135 134zM446 148l-187 193q-134 -49 -134 -151q0 -57 41 -95t105 -38q92 0 175 91z" />
<glyph unicode="'" horiz-adv-x="245" d="M65 428l30 272h94v-5l-81 -267h-43z" />
<glyph unicode="(" horiz-adv-x="434" d="M378 664q-232 -148 -232 -377t232 -377l-33 -51q-277 156 -277 428t277 428z" />
<glyph unicode=")" horiz-adv-x="434" d="M56 664l33 51q277 -156 277 -428t-277 -428l-33 51q232 148 232 377t-232 377z" />
<glyph unicode="*" horiz-adv-x="430" d="M361 496l-27 -47l-103 73l10 -125h-52l10 125l-103 -73l-27 47l116 53l-116 54l27 46l103 -72l-10 125h52l-10 -125l103 72l27 -46l-116 -54z" />
<glyph unicode="+" horiz-adv-x="640" d="M283 388v206h74v-206h208v-72h-208v-206h-74v206h-208v72h208z" />
<glyph unicode="," horiz-adv-x="245" d="M46 -87q67 24 67 78v9h-36v105h92v-90q0 -112 -111 -137z" />
<glyph unicode="." horiz-adv-x="245" d="M169 0h-92v105h92v-105z" />
<glyph unicode="/" horiz-adv-x="508" d="M443 798h71l-464 -926h-71z" />
<glyph unicode="0" horiz-adv-x="715" d="M653 351q0 -152 -80 -255q-84 -108 -216 -108t-215 107q-80 102 -80 254t81 255q84 108 216 108t215 -107q79 -102 79 -254zM571 349q0 120 -58 203q-61 88 -156 88t-156 -86q-57 -83 -57 -203t58 -204q62 -87 157 -87t155 87q57 82 57 202z" />
<glyph unicode="1" horiz-adv-x="358" d="M28 646l171 59h58v-705h-78v623l-132 -41z" />
<glyph unicode="2" horiz-adv-x="599" d="M307 639q-57 0 -103 -31q-41 -27 -85 -89l-58 42q51 76 104 110q61 39 148 39q95 0 156 -56t61 -143q0 -73 -43 -135q-35 -50 -134 -138l-187 -166h371v-72h-489v61l254 224q82 72 114 120t32 100q0 60 -41 97t-100 37z" />
<glyph unicode="3" horiz-adv-x="613" d="M429 629h-342v71h447v-58l-220 -244q101 -8 162 -54q69 -53 69 -144q0 -93 -67.5 -152.5t-166.5 -59.5q-165 0 -261 125l57 51q85 -104 205 -104q65 0 109 38t44 99q0 65 -53.5 100.5t-142.5 35.5h-45l-16 47z" />
<glyph unicode="4" horiz-adv-x="671" d="M439 705h69v-473h109v-66h-109v-166h-76v166h-369l-20 57zM432 232v361l-294 -361h294z" />
<glyph unicode="5" horiz-adv-x="612" d="M99 359l20 341h403v-73h-334l-15 -224q71 31 138 31q105 0 172 -57q70 -60 70 -158q0 -103 -70 -167t-180 -64q-139 0 -250 111l52 57q99 -96 199 -96q75 0 122 44t47 112q0 66 -48.5 107t-125.5 41q-72 0 -147 -40z" />
<glyph unicode="6" horiz-adv-x="647" d="M559 632l-46 -61q-82 69 -165 69q-94 0 -150 -86t-55 -223q73 107 199 107q101 0 170 -58q72 -62 72 -158q0 -101 -72 -167.5t-179 -66.5q-113 0 -184 71q-88 88 -88 272q0 165 77 271q80 110 214 110q109 0 207 -80zM503 219q0 66 -48 108.5t-123 42.5q-76 0 -125.5 -46 t-49.5 -108q0 -68 50 -113t127 -45q76 0 122.5 46t46.5 115z" />
<glyph unicode="7" horiz-adv-x="596" d="M68 628v72h475v-59l-318 -641h-88l316 628h-385z" />
<glyph unicode="8" horiz-adv-x="630" d="M578 190q0 -89 -75 -144.5t-188 -55.5t-188 55.5t-75 143.5q0 122 144 173q-120 55 -120 162q0 80 72 134q69 52 167 52t168.5 -53t70.5 -133q0 -107 -120 -162q144 -54 144 -172zM475 519q0 52 -46 87t-114 35q-69 0 -114.5 -34.5t-45.5 -87.5q0 -57 46 -93t114 -36 t114 36t46 93zM498 191q0 59 -52.5 96.5t-130.5 37.5t-130.5 -37.5t-52.5 -96.5q0 -56 49.5 -94t133.5 -38t135 39q48 37 48 93z" />
<glyph unicode="9" horiz-adv-x="647" d="M586 368q0 -168 -81 -274t-210 -106q-112 0 -216 86l46 61q86 -75 172 -75q94 0 152 86q56 83 56 212v9q-70 -112 -198 -112q-108 0 -176 61t-68 157q0 102 71 170.5t181 68.5q112 0 184 -72q87 -87 87 -272zM490 482q0 68 -50 114t-128 46q-76 0 -122 -48t-46 -117 q0 -68 48 -111t124 -43q77 0 127 49q47 46 47 110z" />
<glyph unicode=":" horiz-adv-x="255" d="M174 0h-92v105h92v-105zM174 412h-92v105h92v-105z" />
<glyph unicode=";" horiz-adv-x="255" d="M174 412h-92v105h92v-105zM51 -87q67 24 67 78v9h-36v105h92v-90q0 -112 -111 -137z" />
<glyph unicode="&#x3c;" horiz-adv-x="640" d="M72 385l469 233v-77l-385 -188l385 -189v-78l-469 233v66z" />
<glyph unicode="=" horiz-adv-x="640" d="M90 506h460v-74h-460v74zM90 272h460v-74h-460v74z" />
<glyph unicode="&#x3e;" horiz-adv-x="640" d="M568 319l-469 -233v77l385 188l-385 189v78l469 -233v-66z" />
<glyph unicode="?" horiz-adv-x="537" d="M291 0h-92v105h92v-105zM210 365q96 2 147.5 39.5t51.5 102.5q0 56 -40 93.5t-106 37.5q-101 0 -182 -94l-51 49q96 116 235 116q100 0 162 -56t62 -143q0 -89 -61 -143q-54 -48 -147 -61l-10 -108h-51l-15 162z" />
<glyph unicode="@" horiz-adv-x="980" d="M927 316q0 -119 -59 -186q-52 -59 -128 -59q-108 0 -140 84q-71 -84 -165 -84q-75 0 -127 50.5t-52 131.5q0 103 73 178q70 71 158 71q99 0 146 -83l13 69l67 -9l-40 -227q-7 -40 -7 -61q0 -81 85 -81q58 0 97 50q43 56 43 156q0 142 -114 250q-119 112 -286 112 q-171 0 -286.5 -118t-115.5 -286q0 -169 116 -285.5t294 -116.5q133 0 249 68l16 -27q-123 -75 -265 -75q-190 0 -318 127.5t-128 308.5q0 180 127.5 309t310.5 129q181 0 310 -120q126 -117 126 -276zM614 313q0 55 -34.5 91t-87.5 36q-65 0 -113 -52q-51 -54 -51 -130 q0 -58 34 -91.5t88 -33.5q64 0 114 54.5t50 125.5z" />
<glyph unicode="A" horiz-adv-x="790" d="M432 705l319 -705h-85l-82 185h-381l-83 -185h-81l319 705h74zM553 256l-159 357l-160 -357h319z" />
<glyph unicode="B" horiz-adv-x="722" d="M397 700q104 0 166 -47.5t62 -127.5q0 -115 -111 -163q150 -45 150 -170q0 -90 -69 -141t-185 -51h-311v700h298zM384 388q73 0 117 32.5t44 93.5q0 53 -40.5 84t-114.5 31h-213v-241h207zM412 71q80 0 126 33.5t46 92.5q0 121 -186 121h-221v-247h235z" />
<glyph unicode="C" horiz-adv-x="738" d="M699 111q-121 -123 -280 -123q-151 0 -251 104t-100 257q0 152 100.5 257.5t253.5 105.5q155 0 273 -111l-54 -58q-101 96 -220 96q-116 0 -193.5 -82.5t-77.5 -205.5t78 -206.5t193 -83.5q120 0 226 101z" />
<glyph unicode="D" horiz-adv-x="782" d="M714 351q0 -150 -103 -250q-106 -101 -269 -101h-243v700h243q163 0 269 -100q103 -99 103 -249zM632 349q0 119 -80 198.5t-210 79.5h-164v-554h164q130 0 211 80q79 77 79 196z" />
<glyph unicode="E" horiz-adv-x="670" d="M605 700v-72h-427v-239h382v-72h-382v-245h432v-72h-511v700h506z" />
<glyph unicode="F" horiz-adv-x="656" d="M602 700v-73h-424v-250h379v-72h-379v-305h-79v700h503z" />
<glyph unicode="G" horiz-adv-x="784" d="M705 95q-120 -107 -281 -107t-260 105q-96 101 -96 256q0 149 97 254q100 109 254 109q151 0 261 -93l-51 -60q-92 80 -213 80q-115 0 -190.5 -84t-75.5 -204q0 -128 75.5 -210t201.5 -82q116 0 202 70v174h-213v71h289v-279z" />
<glyph unicode="H" horiz-adv-x="760" d="M582 315h-404v-315h-79v700h79v-311h404v311h79v-700h-79v315z" />
<glyph unicode="I" horiz-adv-x="291" d="M106 700h79v-700h-79v700z" />
<glyph unicode="J" horiz-adv-x="553" d="M465 232q0 -117 -62 -181q-58 -61 -156 -61q-140 0 -216 124l57 49q66 -100 160 -100q61 0 99 43.5t38 124.5v469h80v-468z" />
<glyph unicode="K" horiz-adv-x="719" d="M382 394l313 -394h-99l-269 339l-149 -151v-188h-79v700h79v-418l402 418h102z" />
<glyph unicode="L" horiz-adv-x="619" d="M99 0v700h79v-627h394v-73h-473z" />
<glyph unicode="M" horiz-adv-x="868" d="M690 567l-255 -375h-4l-255 374v-566h-77v700h80l255 -382l255 382h80v-700h-79v567z" />
<glyph unicode="N" horiz-adv-x="790" d="M614 139v561h77v-700h-63l-452 574v-574h-77v700h74z" />
<glyph unicode="O" horiz-adv-x="850" d="M782 351q0 -149 -99 -254q-103 -109 -259 -109t-258 108q-98 104 -98 253t99 254q103 109 259 109t258 -108q98 -104 98 -253zM700 349q0 121 -78.5 205.5t-197.5 84.5t-196.5 -83.5t-77.5 -204.5t78.5 -205.5t197.5 -84.5t196.5 83.5t77.5 204.5z" />
<glyph unicode="P" horiz-adv-x="668" d="M623 477q0 -109 -82 -172q-75 -58 -193 -58h-170v-247h-79v700h262q119 0 190.5 -60t71.5 -163zM543 474q0 74 -50.5 113.5t-137.5 39.5h-177v-308h173q87 0 139.5 42.5t52.5 112.5z" />
<glyph unicode="Q" horiz-adv-x="850" d="M698 115l93 -77l-54 -59l-92 84q-96 -75 -221 -75q-156 0 -258 108q-98 104 -98 253t99 254q103 109 259 109t258 -108q98 -104 98 -253q0 -136 -84 -236zM587 114l-130 111l53 59l129 -117q61 79 61 182q0 121 -78.5 205.5t-197.5 84.5t-196.5 -83.5t-77.5 -204.5 t78.5 -205.5t197.5 -84.5q92 0 161 53z" />
<glyph unicode="R" horiz-adv-x="723" d="M678 0h-97l-203 272h-200v-272h-79v700h301q115 0 184 -57t69 -152q0 -85 -54 -139q-50 -50 -136 -66zM573 488q0 65 -47 102t-132 37h-216v-284h215q80 0 130 39t50 106z" />
<glyph unicode="S" horiz-adv-x="640" d="M160 525q0 -53 37 -81q42 -32 153 -56q119 -26 173.5 -72.5t54.5 -126.5q0 -90 -67 -144.5t-172 -54.5q-161 0 -286 112l49 58q110 -99 240 -99q70 0 113 33.5t43 86.5q0 52 -36 80q-40 31 -146 54q-124 27 -178 71q-57 47 -57 132q0 84 65 138t165 54q139 0 246 -86 l-46 -61q-93 76 -202 76q-67 0 -108 -32.5t-41 -81.5z" />
<glyph unicode="T" horiz-adv-x="648" d="M364 627v-627h-80v627h-235v73h550v-73h-235z" />
<glyph unicode="U" horiz-adv-x="759" d="M671 700v-401q0 -150 -79 -230t-213 -80q-133 0 -210 78q-81 81 -81 226v407h79v-402q0 -113 56.5 -174.5t157.5 -61.5q99 0 155 59t56 172v407h79z" />
<glyph unicode="V" horiz-adv-x="750" d="M376 97l250 603h85l-301 -705h-70l-301 705h88z" />
<glyph unicode="W" horiz-adv-x="1107" d="M331 117l192 585h65l192 -585l200 583h83l-250 -705h-67l-192 568l-193 -568h-66l-250 705h86z" />
<glyph unicode="X" horiz-adv-x="725" d="M679 0h-94l-224 301l-224 -301h-91l269 357l-259 343h93l215 -286l213 286h92l-259 -342z" />
<glyph unicode="Y" horiz-adv-x="716" d="M398 278v-278h-80v277l-291 423h96l236 -350l238 350h92z" />
<glyph unicode="Z" horiz-adv-x="693" d="M520 629h-438v71h546v-53l-454 -576h454v-71h-561v53z" />
<glyph unicode="[" horiz-adv-x="439" d="M380 700v-60h-213v-710h213v-60h-286v830h286z" />
<glyph unicode="\" horiz-adv-x="508" d="M65 798l464 -926h-71l-464 926h71z" />
<glyph unicode="]" horiz-adv-x="439" d="M59 700h286v-830h-286v60h214v710h-214v60z" />
<glyph unicode="^" d="M249 647l-118 -154h-66l155 209h60l155 -209h-68z" />
<glyph unicode="_" horiz-adv-x="600" d="M-2 -97h604v-63h-604v63z" />
<glyph unicode="`" d="M257 595l-113 108l80 37l95 -145h-62z" />
<glyph unicode="a" horiz-adv-x="579" d="M273 456q-74 0 -157 -38l-23 63q94 43 188 43q106 0 163 -53t57 -155v-316h-74v78q-68 -89 -187 -89q-78 0 -132 41q-61 45 -61 121q0 81 60 124.5t161 43.5q81 0 159 -22v18q0 141 -154 141zM276 262q-72 0 -111.5 -29t-39.5 -79q0 -48 39 -77q36 -27 91 -27 q72 0 122.5 39.5t50.5 100.5v50q-76 22 -152 22z" />
<glyph unicode="b" horiz-adv-x="664" d="M608 259q0 -122 -77 -199q-71 -71 -170 -71q-122 0 -198 110v-99h-77v730h77v-317q78 115 198 115q99 0 170 -70q77 -77 77 -199zM529 258q0 90 -54 147q-52 54 -128 54q-75 0 -129 -55q-58 -58 -58 -145q0 -88 58 -146q54 -55 129 -55q78 0 130 54t52 146z" />
<glyph unicode="c" horiz-adv-x="571" d="M530 88q-90 -100 -211 -100q-112 0 -188.5 79t-76.5 190q0 112 76.5 191.5t188.5 79.5q120 0 207 -92l-51 -54q-74 78 -157 78q-78 0 -131.5 -58.5t-53.5 -142.5q0 -85 54.5 -143.5t135.5 -58.5q86 0 158 77z" />
<glyph unicode="d" horiz-adv-x="664" d="M578 0h-77v104q-78 -115 -198 -115q-99 0 -170 70q-77 77 -77 199t77 199q71 71 170 71q122 0 198 -110v312h77v-730zM504 259q0 87 -57 145q-55 55 -130 55q-78 0 -128 -53q-54 -55 -54 -147q0 -90 53 -145.5t129 -55.5q75 0 131 56.5t56 144.5z" />
<glyph unicode="e" horiz-adv-x="592" d="M132 230q8 -81 61 -129q50 -46 121 -46q93 0 163 73l48 -43q-87 -97 -213 -97q-109 0 -182 75q-76 76 -76 195q0 113 71 191.5t177 78.5q111 0 178 -80q63 -76 63 -194q0 -15 -1 -24h-410zM132 287h333q-6 76 -47 123q-45 53 -118 53q-67 0 -113.5 -50t-54.5 -126z" />
<glyph unicode="f" horiz-adv-x="367" d="M191 515h164v-66h-163v-449h-77v449h-71v67h71v45q0 173 156 173q49 0 85 -13v-67q-45 13 -75 13q-90 0 -90 -110v-42z" />
<glyph unicode="g" horiz-adv-x="664" d="M578 90q0 -123 -70.5 -187.5t-192.5 -64.5q-131 0 -235 72l35 60q91 -66 199 -66q87 0 137.5 47.5t50.5 136.5v61q-82 -109 -203 -109q-98 0 -168 65q-75 69 -75 178t75 180q71 65 168 65q124 0 202 -104v93h77v-427zM504 284q0 78 -56.5 127t-133.5 49q-76 0 -126 -47 q-53 -49 -53 -128q0 -78 54 -128q51 -49 125 -49q76 0 133 49.5t57 126.5z" />
<glyph unicode="h" horiz-adv-x="616" d="M163 296v-296h-77v730h77v-303q61 101 177 101q92 0 145 -56.5t53 -150.5v-321h-77v302q0 73 -37.5 114.5t-105.5 41.5q-67 0 -111 -45t-44 -117z" />
<glyph unicode="i" horiz-adv-x="263" d="M176 630h-88v85h88v-85zM170 0h-77v517h77v-517z" />
<glyph unicode="j" horiz-adv-x="263" d="M176 630h-88v85h88v-85zM93 517h77v-547q0 -133 -126 -133q-27 0 -48 5v63q18 -3 38 -3q59 0 59 69v546z" />
<glyph unicode="k" horiz-adv-x="569" d="M321 295l224 -295h-92l-185 241l-105 -106v-135h-77v730h77v-504l279 291h96z" />
<glyph unicode="l" horiz-adv-x="263" d="M170 0h-77v730h77v-730z" />
<glyph unicode="m" horiz-adv-x="951" d="M496 425q67 103 182 103q89 0 140.5 -56t51.5 -152v-320h-77v302q0 75 -35.5 115.5t-98.5 40.5q-61 0 -102 -43t-41 -117v-298h-76v304q0 72 -35.5 113t-97.5 41t-103 -46t-41 -117v-295h-77v517h77v-87q65 98 167 98q116 0 166 -103z" />
<glyph unicode="n" horiz-adv-x="616" d="M163 296v-296h-77v517h77v-90q61 101 177 101q92 0 145 -56.5t53 -150.5v-321h-77v302q0 73 -37.5 114.5t-105.5 41.5q-67 0 -111 -45t-44 -117z" />
<glyph unicode="o" horiz-adv-x="646" d="M593 259q0 -112 -78 -191.5t-193 -79.5t-191.5 78.5t-76.5 190.5t77.5 191.5t192.5 79.5t192 -78.5t77 -190.5zM514 257q0 85 -55.5 144t-136.5 59q-83 0 -136 -58t-53 -143t55 -143.5t136 -58.5q83 0 136.5 58t53.5 142z" />
<glyph unicode="p" horiz-adv-x="664" d="M608 259q0 -122 -77 -199q-71 -71 -170 -71q-122 0 -198 110v-259h-77v677h77v-104q78 115 198 115q99 0 170 -70q77 -77 77 -199zM529 258q0 90 -54 147q-52 54 -128 54q-75 0 -129 -55q-58 -58 -58 -145q0 -88 58 -146q54 -55 129 -55q78 0 130 54t52 146z" />
<glyph unicode="q" horiz-adv-x="664" d="M578 -160h-77v264q-78 -115 -198 -115q-99 0 -170 70q-77 77 -77 199t77 199q71 71 170 71q122 0 198 -110v99h77v-677zM504 259q0 87 -57 145q-55 55 -130 55q-78 0 -128 -53q-54 -55 -54 -147q0 -90 53 -145.5t129 -55.5q75 0 131 56.5t56 144.5z" />
<glyph unicode="r" horiz-adv-x="405" d="M163 206v-206h-77v517h77v-135q30 67 83 106q53 38 118 38h10v-83h-6q-89 0 -145 -60q-60 -64 -60 -177z" />
<glyph unicode="s" horiz-adv-x="498" d="M441 145q0 -72 -52 -113.5t-132 -41.5q-120 0 -214 76l39 55q88 -66 179 -66q47 0 77 22.5t30 59.5v2q0 35 -39 58q-26 15 -90 33q-81 23 -116 46q-55 37 -55 100v2q0 66 49.5 107t126.5 41q100 0 186 -57l-35 -58q-77 50 -153 50q-45 0 -72.5 -21t-27.5 -54v-2 q0 -33 41 -55q24 -13 92 -34q78 -24 113 -48q53 -38 53 -100v-2z" />
<glyph unicode="t" horiz-adv-x="404" d="M190 449v-302q0 -86 87 -86q38 0 75 18v-66q-42 -22 -93 -22q-146 0 -146 146v312h-72v68h72v156h77v-156h164v-68h-164z" />
<glyph unicode="u" horiz-adv-x="616" d="M453 221v296h76v-517h-76v90q-63 -101 -177 -101q-92 0 -145 56.5t-53 150.5v321h77v-302q0 -73 37.5 -114.5t105.5 -41.5q67 0 111 45t44 117z" />
<glyph unicode="v" horiz-adv-x="587" d="M294 88l175 429h83l-225 -521h-68l-224 521h85z" />
<glyph unicode="w" horiz-adv-x="861" d="M463 519l140 -417l136 415h80l-182 -521h-67l-139 408l-140 -408h-68l-181 521h82l136 -415l139 417h64z" />
<glyph unicode="x" horiz-adv-x="574" d="M331 265l204 -265h-89l-160 211l-161 -211h-86l203 263l-195 254h88l153 -200l153 200h86z" />
<glyph unicode="y" horiz-adv-x="591" d="M555 517l-217 -534q-32 -79 -72.5 -112.5t-99.5 -33.5q-56 0 -110 26l26 61q37 -19 81 -19q35 0 59 21.5t47 75.5l-235 515h85l188 -431l166 431h82z" />
<glyph unicode="z" horiz-adv-x="556" d="M399 452h-331v65h436v-49l-344 -403h344v-65h-448v49z" />
<glyph unicode="{" horiz-adv-x="483" d="M428 664q-100 -26 -130 -60q-26 -29 -26 -101q0 -10 1 -37v-38q0 -108 -104 -141q53 -17 77 -47q27 -34 27 -94v-38q-1 -27 -1 -37q0 -72 26 -101q30 -34 130 -60l-12 -51q-127 23 -176 74q-41 43 -41 128q0 7 1 37v39q0 61 -25 89q-28 31 -93 31h-26v60h26q65 0 93 31 q25 28 25 89v39q-1 30 -1 37q0 85 41 128q49 51 176 74z" />
<glyph unicode="|" horiz-adv-x="303" d="M184 -128h-65v926h65v-926z" />
<glyph unicode="}" horiz-adv-x="483" d="M54 -90q101 26 131 60q26 29 26 101v37q-1 27 -1 38q0 109 104 141q-53 17 -77 47q-27 34 -27 94q0 11 1 38v37q0 72 -26 101q-30 34 -131 60l13 51q127 -23 176 -74q41 -43 41 -128v-37q-1 -30 -1 -39q0 -61 25 -89q28 -31 92 -31h26v-60h-26q-64 0 -90.5 -29.5 t-26.5 -90.5q0 -9 1 -39v-37q0 -85 -41 -128q-49 -51 -176 -74z" />
<glyph unicode="~" horiz-adv-x="473" d="M400 352q-15 -57 -36.5 -81.5t-57.5 -24.5q-24 0 -71 20.5t-63 20.5q-32 0 -52 -50l-47 13q28 106 95 106q23 0 70.5 -20.5t63.5 -20.5q32 0 52 50z" />
<glyph unicode="&#xa1;" horiz-adv-x="271" d="M182 595h-92v105h92v-105zM181 0h-90v57l23 445h43z" />
<glyph unicode="&#xa2;" horiz-adv-x="581" d="M533 186q-89 -101 -209 -101q-19 0 -29 2l-18 -93h-65l22 106q-78 28 -127 98t-49 156q0 111 77 191t188 80h13l15 81h65l-18 -90q71 -17 132 -84l-50 -52q-54 54 -99 67l-75 -391q17 -2 25 -2q83 1 154 77zM325 556h-6q-78 -1 -130.5 -58.5t-52.5 -141.5 q0 -62 31.5 -112t83.5 -74z" />
<glyph unicode="&#xa3;" horiz-adv-x="644" d="M151 364v108q0 108 58.5 173t162.5 65q131 0 214 -108l-61 -48q-66 83 -154 83q-67 0 -104 -44t-37 -121v-108h279v-69h-279v-225h355v-70h-518v46l84 21v228h-84v69h84z" />
<glyph unicode="&#xa4;" horiz-adv-x="720" d="M139 408h-83v62h94q29 108 102.5 175t172.5 67q149 0 241 -137l-60 -43q-40 56 -79 81q-44 28 -105 28q-65 0 -116 -47t-75 -124h257v-62h-270q-4 -24 -4 -57q0 -17 2 -51h272v-63h-259q22 -81 76.5 -129.5t127.5 -48.5q99 0 178 115l57 -40q-97 -146 -238 -146 q-105 0 -180.5 68t-102.5 181h-91v63h81q-2 16 -2 49q0 34 4 59z" />
<glyph unicode="&#xa5;" horiz-adv-x="686" d="M381 266v-88h205v-62h-205v-116h-76v116h-205v62h205v88h-205v62h181l-254 372h94l223 -342l225 342h90l-255 -372h182v-62h-205z" />
<glyph unicode="&#xa7;" horiz-adv-x="632" d="M570 341q0 -45 -35.5 -75t-96.5 -40q74 -38 74 -102q0 -61 -50 -97.5t-134 -36.5q-136 0 -229 95l50 48q79 -77 181 -77q103 0 103 67q0 29 -35.5 50t-127.5 43q-114 27 -161 59t-47 84q0 45 35.5 75t96.5 40q-74 38 -74 102q0 61 50 97.5t134 36.5q136 0 229 -95 l-50 -48q-79 77 -181 77q-103 0 -103 -67q0 -29 35.5 -50t127.5 -43q114 -27 161 -59t47 -84zM496 333q0 54 -149 90q-61 14 -102 14q-48 0 -78.5 -20.5t-30.5 -49.5q0 -53 142 -88q65 -16 109 -16q48 0 78.5 20.5t30.5 49.5z" />
<glyph unicode="&#xa8;" d="M383 595h-90v95h90v-95zM207 595h-90v95h90v-95z" />
<glyph unicode="&#xa9;" horiz-adv-x="830" d="M777 351q0 -149 -106 -256t-257 -107t-256 106t-105 255t106 256t257 107t256 -106t105 -255zM744 351q0 138 -94.5 234t-233.5 96q-140 0 -235 -97t-95 -235t94.5 -234t233.5 -96q140 0 235 97t95 235zM567 229q-64 -66 -148 -66q-79 0 -132.5 56t-53.5 136t53.5 136 t134.5 56t144 -60l-37 -40q-52 50 -108 50q-57 0 -94 -41t-37 -100t38.5 -100.5t93.5 -41.5q57 0 110 50z" />
<glyph unicode="&#xaa;" horiz-adv-x="390" d="M313 414h-49v38q-36 -44 -96 -44q-43 0 -73 23q-34 25 -34 68q0 45 33.5 69.5t89.5 24.5q40 0 80 -11v5q0 71 -78 71q-37 0 -86 -22l-15 42q57 25 106 25q122 0 122 -116v-173zM318 289h-260v47h260v-47zM264 520v24q-37 11 -76 11q-75 0 -75 -54q0 -24 18.5 -37.5 t45.5 -13.5q36 0 61.5 19.5t25.5 50.5z" />
<glyph unicode="&#xab;" horiz-adv-x="550" d="M210 476l59 -33l-135 -183l135 -185l-59 -34l-162 214v8zM433 476l58 -33l-135 -183l135 -185l-58 -34l-162 214v8z" />
<glyph unicode="&#xad;" horiz-adv-x="408" d="M343 260h-278v81h278v-81z" />
<glyph unicode="&#x2212;" horiz-adv-x="408" d="M343 260h-278v81h278v-81z" />
<glyph unicode="&#xae;" horiz-adv-x="830" d="M777 351q0 -149 -106 -256t-257 -107t-256 106t-105 255t106 256t257 107t256 -106t105 -255zM744 351q0 138 -94.5 234t-233.5 96q-140 0 -235 -97t-95 -235t94.5 -234t233.5 -96q140 0 235 97t95 235zM579 434q0 -88 -96 -110l115 -149h-68l-107 140h-95v-140h-55v371 h166q62 0 101 -30.5t39 -81.5zM522 431q0 65 -85 65h-109v-132h106q40 0 64 17.5t24 49.5z" />
<glyph unicode="&#xaf;" d="M408 600h-316v67h316v-67z" />
<glyph unicode="&#x2c9;" d="M408 600h-316v67h316v-67z" />
<glyph unicode="&#xb0;" horiz-adv-x="458" d="M386 553q0 -61 -47.5 -107t-109.5 -46t-109.5 46t-47.5 107t47.5 107t109.5 46t109.5 -46t47.5 -107zM328 553q0 41 -28.5 71t-70.5 30t-70.5 -30t-28.5 -71t28.5 -71t70.5 -30t70.5 30t28.5 71z" />
<glyph unicode="&#xb1;" horiz-adv-x="604" d="M546 191q0 -87 -67 -145t-173 -58q-163 0 -263 126l58 50q83 -104 207 -104q70 0 114 36t44 95q0 60 -49.5 94t-137.5 34h-72v68h74q73 0 119.5 35t46.5 95q0 54 -41.5 88.5t-108.5 34.5q-106 0 -181 -100l-58 42q92 130 241 130q100 0 164 -53t64 -135q0 -118 -122 -165 q141 -46 141 -168z" />
<glyph unicode="&#xb2;" horiz-adv-x="599" d="M307 639q-57 0 -103 -31q-41 -27 -85 -89l-58 42q51 76 104 110q61 39 148 39q95 0 156 -56t61 -143q0 -73 -43 -135q-35 -50 -134 -138l-187 -166h371v-72h-489v61l254 224q82 72 114 120t32 100q0 60 -41 97t-100 37z" />
<glyph unicode="&#xb3;" horiz-adv-x="613" d="M429 629h-342v71h447v-58l-220 -244q101 -8 162 -54q69 -53 69 -144q0 -93 -67.5 -152.5t-166.5 -59.5q-165 0 -261 125l57 51q85 -104 205 -104q65 0 109 38t44 99q0 65 -53.5 100.5t-142.5 35.5h-45l-16 47z" />
<glyph unicode="&#xb4;" d="M243 595h-62l95 145l80 -37z" />
<glyph unicode="&#xb5;" horiz-adv-x="850" d="M782 351q0 -174 -129 -281l172 -165v-6h-116l-132 123q-70 -34 -153 -34q-156 0 -258 108q-98 104 -98 253t99 254q103 109 259 109t258 -108q98 -104 98 -253zM700 349q0 121 -78.5 205.5t-197.5 84.5t-196.5 -83.5t-77.5 -204.5t78.5 -205.5t197.5 -84.5t196.5 83.5 t77.5 204.5z" />
<glyph unicode="&#x3bc;" horiz-adv-x="850" d="M782 351q0 -174 -129 -281l172 -165v-6h-116l-132 123q-70 -34 -153 -34q-156 0 -258 108q-98 104 -98 253t99 254q103 109 259 109t258 -108q98 -104 98 -253zM700 349q0 121 -78.5 205.5t-197.5 84.5t-196.5 -83.5t-77.5 -204.5t78.5 -205.5t197.5 -84.5t196.5 83.5 t77.5 204.5z" />
<glyph unicode="&#xb6;" horiz-adv-x="510" d="M312 700h106v-700h-80v264h-11q-123 0 -199 56q-80 59 -80 162q0 101 74 160q71 58 190 58z" />
<glyph unicode="&#xb7;" horiz-adv-x="245" d="M169 248h-92v105h92v-105z" />
<glyph unicode="&#x2219;" horiz-adv-x="245" d="M169 248h-92v105h92v-105z" />
<glyph unicode="&#xb8;" d="M240 10h61l-76 -165l-75 34z" />
<glyph unicode="&#xb9;" horiz-adv-x="358" d="M28 646l171 59h58v-705h-78v623l-132 -41z" />
<glyph unicode="&#xba;" horiz-adv-x="390" d="M342 557q0 -62 -42.5 -106t-105.5 -44q-62 0 -104 43.5t-42 104.5q0 62 42.5 106t105.5 44q62 0 104 -43.5t42 -104.5zM339 289h-288v47h288v-47zM288 555q0 43 -27 72.5t-67 29.5t-66 -29t-26 -71t27 -72t67 -30t66 29t26 71z" />
<glyph unicode="&#xbb;" horiz-adv-x="550" d="M117 41l-58 33l135 184l-135 184l58 34l162 -213v-8zM340 41l-59 33l135 184l-135 184l59 34l162 -213v-8z" />
<glyph unicode="&#xbf;" horiz-adv-x="537" d="M338 595h-92v105h92v-105zM327 335q-96 -2 -147.5 -39.5t-51.5 -102.5q0 -56 40 -93.5t106 -37.5q101 0 181 94l51 -49q-96 -116 -234 -116q-101 0 -162.5 56t-61.5 143q0 89 61 143q54 48 147 61l9 108h51l16 -162z" />
<glyph unicode="&#xc0;" horiz-adv-x="790" d="M432 705l319 -705h-85l-82 185h-381l-83 -185h-81l319 705h74zM553 256l-159 357l-160 -357h319zM363 762l-113 108l80 37l95 -145h-62z" />
<glyph unicode="&#xc1;" horiz-adv-x="790" d="M432 705l319 -705h-85l-82 185h-381l-83 -185h-81l319 705h74zM553 256l-159 357l-160 -357h319zM427 762h-62l95 145l80 -37z" />
<glyph unicode="&#xc2;" horiz-adv-x="790" d="M432 705l319 -705h-85l-82 185h-381l-83 -185h-81l319 705h74zM553 256l-159 357l-160 -357h319zM394 826l-75 -67h-64l106 131h68l106 -131h-66z" />
<glyph unicode="&#xc3;" horiz-adv-x="790" d="M432 705l319 -705h-85l-82 185h-381l-83 -185h-81l319 705h74zM553 256l-159 357l-160 -357h319zM559 867q-28 -105 -95 -105q-24 0 -71 20t-63 20q-32 0 -52 -49l-47 13q28 105 95 105q24 0 71 -20t63 -20q32 0 52 49z" />
<glyph unicode="&#xc4;" horiz-adv-x="790" d="M432 705l319 -705h-85l-82 185h-381l-83 -185h-81l319 705h74zM553 256l-159 357l-160 -357h319zM528 762h-90v95h90v-95zM352 762h-90v95h90v-95z" />
<glyph unicode="&#xc5;" horiz-adv-x="790" d="M346 680q-55 29 -55 87q0 41 31 70.5t73 29.5t73 -29.5t31 -70.5q0 -58 -55 -87l307 -680h-85l-82 185h-381l-83 -185h-81zM457 767q0 26 -18 44t-44 18q-25 0 -43.5 -18t-18.5 -44q0 -25 18.5 -43.5t43.5 -18.5q26 0 44 18.5t18 43.5zM553 256l-159 357l-160 -357h319z " />
<glyph unicode="&#xc6;" horiz-adv-x="1045" d="M209 185l-109 -185h-83l411 700h552v-72h-409v-239h364v-72h-364v-245h414v-72h-494v185h-282zM467 630l-218 -374h242v374h-24z" />
<glyph unicode="&#xc7;" horiz-adv-x="738" d="M371 -9q-133 17 -218 117.5t-85 240.5q0 152 100.5 257.5t253.5 105.5q155 0 273 -111l-54 -58q-101 96 -220 96q-116 0 -193.5 -82.5t-77.5 -205.5t78 -206.5t193 -83.5q120 0 226 101l52 -51q-115 -117 -264 -123l-66 -143l-75 34z" />
<glyph unicode="&#xc8;" horiz-adv-x="670" d="M605 700v-72h-427v-239h382v-72h-382v-245h432v-72h-511v700h506zM340 762l-113 108l80 37l95 -145h-62z" />
<glyph unicode="&#xc9;" horiz-adv-x="670" d="M605 700v-72h-427v-239h382v-72h-382v-245h432v-72h-511v700h506zM359 762h-62l95 145l80 -37z" />
<glyph unicode="&#xca;" horiz-adv-x="670" d="M605 700v-72h-427v-239h382v-72h-382v-245h432v-72h-511v700h506zM347 829l-75 -67h-64l106 131h68l106 -131h-66z" />
<glyph unicode="&#xcb;" horiz-adv-x="670" d="M605 700v-72h-427v-239h382v-72h-382v-245h432v-72h-511v700h506zM481 762h-90v95h90v-95zM305 762h-90v95h90v-95z" />
<glyph unicode="&#xcc;" horiz-adv-x="291" d="M106 700h79v-700h-79v700zM115 762l-113 108l80 37l95 -145h-62z" />
<glyph unicode="&#xcd;" horiz-adv-x="291" d="M106 700h79v-700h-79v700zM176 762h-62l95 145l80 -37z" />
<glyph unicode="&#xce;" horiz-adv-x="291" d="M106 700h79v-700h-79v700zM145 829l-75 -67h-64l106 131h68l106 -131h-66z" />
<glyph unicode="&#xcf;" horiz-adv-x="291" d="M106 700h79v-700h-79v700zM279 762h-90v95h90v-95zM103 762h-90v95h90v-95z" />
<glyph unicode="&#xd0;" horiz-adv-x="812" d="M129 316h-75v72h75v312h243q163 0 269 -100q103 -99 103 -249t-103 -250q-106 -101 -269 -101h-243v316zM208 388h210v-72h-210v-243h164q130 0 211 80q79 77 79 196t-80 198.5t-210 79.5h-164v-239z" />
<glyph unicode="&#xd1;" horiz-adv-x="790" d="M614 139v561h77v-700h-63l-452 574v-574h-77v700h74zM559 867q-28 -105 -95 -105q-24 0 -71 20t-63 20q-32 0 -52 -49l-47 13q28 105 95 105q24 0 71 -20t63 -20q32 0 52 49z" />
<glyph unicode="&#xd2;" horiz-adv-x="850" d="M782 351q0 -149 -99 -254q-103 -109 -259 -109t-258 108q-98 104 -98 253t99 254q103 109 259 109t258 -108q98 -104 98 -253zM700 349q0 121 -78.5 205.5t-197.5 84.5t-196.5 -83.5t-77.5 -204.5t78.5 -205.5t197.5 -84.5t196.5 83.5t77.5 204.5zM389 762l-113 108 l80 37l95 -145h-62z" />
<glyph unicode="&#xd3;" horiz-adv-x="850" d="M782 351q0 -149 -99 -254q-103 -109 -259 -109t-258 108q-98 104 -98 253t99 254q103 109 259 109t258 -108q98 -104 98 -253zM700 349q0 121 -78.5 205.5t-197.5 84.5t-196.5 -83.5t-77.5 -204.5t78.5 -205.5t197.5 -84.5t196.5 83.5t77.5 204.5zM461 762h-62l95 145 l80 -37z" />
<glyph unicode="&#xd4;" horiz-adv-x="850" d="M782 351q0 -149 -99 -254q-103 -109 -259 -109t-258 108q-98 104 -98 253t99 254q103 109 259 109t258 -108q98 -104 98 -253zM700 349q0 121 -78.5 205.5t-197.5 84.5t-196.5 -83.5t-77.5 -204.5t78.5 -205.5t197.5 -84.5t196.5 83.5t77.5 204.5zM424 829l-75 -67h-64 l106 131h68l106 -131h-66z" />
<glyph unicode="&#xd5;" horiz-adv-x="850" d="M782 351q0 -149 -99 -254q-103 -109 -259 -109t-258 108q-98 104 -98 253t99 254q103 109 259 109t258 -108q98 -104 98 -253zM700 349q0 121 -78.5 205.5t-197.5 84.5t-196.5 -83.5t-77.5 -204.5t78.5 -205.5t197.5 -84.5t196.5 83.5t77.5 204.5zM589 867 q-28 -105 -95 -105q-24 0 -71 20t-63 20q-32 0 -52 -49l-47 13q28 105 95 105q24 0 71 -20t63 -20q32 0 52 49z" />
<glyph unicode="&#xd6;" horiz-adv-x="850" d="M782 351q0 -149 -99 -254q-103 -109 -259 -109t-258 108q-98 104 -98 253t99 254q103 109 259 109t258 -108q98 -104 98 -253zM700 349q0 121 -78.5 205.5t-197.5 84.5t-196.5 -83.5t-77.5 -204.5t78.5 -205.5t197.5 -84.5t196.5 83.5t77.5 204.5zM558 762h-90v95h90v-95 zM382 762h-90v95h90v-95z" />
<glyph unicode="&#xd8;" horiz-adv-x="850" d="M782 351q0 -149 -99 -254q-103 -109 -259 -109q-128 0 -219 74l-62 -67h-83l99 108q-91 102 -91 246q0 149 99 254q103 109 259 109q128 0 219 -74l62 67h83l-99 -109q91 -100 91 -245zM595 580q-76 61 -171 61q-119 0 -197 -84t-78 -206q0 -108 63 -188zM701 349 q0 108 -63 188l-383 -417q76 -61 171 -61q119 0 197 84t78 206z" />
<glyph unicode="&#xd9;" horiz-adv-x="759" d="M671 700v-401q0 -150 -79 -230t-213 -80q-133 0 -210 78q-81 81 -81 226v407h79v-402q0 -113 56.5 -174.5t157.5 -61.5q99 0 155 59t56 172v407h79zM354 757l-113 108l80 37l95 -145h-62z" />
<glyph unicode="&#xda;" horiz-adv-x="759" d="M671 700v-401q0 -150 -79 -230t-213 -80q-133 0 -210 78q-81 81 -81 226v407h79v-402q0 -113 56.5 -174.5t157.5 -61.5q99 0 155 59t56 172v407h79zM405 757h-62l95 145l80 -37z" />
<glyph unicode="&#xdb;" horiz-adv-x="759" d="M671 700v-401q0 -150 -79 -230t-213 -80q-133 0 -210 78q-81 81 -81 226v407h79v-402q0 -113 56.5 -174.5t157.5 -61.5q99 0 155 59t56 172v407h79zM378 826l-75 -67h-64l106 131h68l106 -131h-66z" />
<glyph unicode="&#xdc;" horiz-adv-x="759" d="M671 700v-401q0 -150 -79 -230t-213 -80q-133 0 -210 78q-81 81 -81 226v407h79v-402q0 -113 56.5 -174.5t157.5 -61.5q99 0 155 59t56 172v407h79zM512 759h-90v95h90v-95zM336 759h-90v95h90v-95z" />
<glyph unicode="&#xdd;" horiz-adv-x="716" d="M398 278v-278h-80v277l-291 423h96l236 -350l238 350h92zM391 757h-62l95 145l80 -37z" />
<glyph unicode="&#xde;" horiz-adv-x="673" d="M623 357q0 -109 -82 -172q-75 -59 -193 -59h-170v-126h-79v700h79v-120h183q119 0 190.5 -60t71.5 -163zM543 354q0 74 -50.5 113.5t-137.5 39.5h-177v-309h173q87 0 139.5 43t52.5 113z" />
<glyph unicode="&#xdf;" horiz-adv-x="620" d="M519 556q0 -124 -139 -184q182 -40 182 -179q0 -93 -72 -145q-70 -50 -189 -50h-9v62q90 2 140.5 36t50.5 97q0 118 -191 138v57q148 55 148 163q0 53 -36.5 85.5t-94.5 32.5q-65 0 -105.5 -45.5t-40.5 -121.5v-502h-77v501q0 106 61.5 171t165.5 65q93 0 149.5 -51.5 t56.5 -129.5z" />
<glyph unicode="&#xe0;" horiz-adv-x="579" d="M273 456q-74 0 -157 -38l-23 63q94 43 188 43q106 0 163 -53t57 -155v-316h-74v78q-68 -89 -187 -89q-78 0 -132 41q-61 45 -61 121q0 81 60 124.5t161 43.5q81 0 159 -22v18q0 141 -154 141zM276 262q-72 0 -111.5 -29t-39.5 -79q0 -48 39 -77q36 -27 91 -27 q72 0 122.5 39.5t50.5 100.5v50q-76 22 -152 22zM261 595l-113 108l80 37l95 -145h-62z" />
<glyph unicode="&#xe1;" horiz-adv-x="579" d="M273 456q-74 0 -157 -38l-23 63q94 43 188 43q106 0 163 -53t57 -155v-316h-74v78q-68 -89 -187 -89q-78 0 -132 41q-61 45 -61 121q0 81 60 124.5t161 43.5q81 0 159 -22v18q0 141 -154 141zM276 262q-72 0 -111.5 -29t-39.5 -79q0 -48 39 -77q36 -27 91 -27 q72 0 122.5 39.5t50.5 100.5v50q-76 22 -152 22zM310 595h-62l95 145l80 -37z" />
<glyph unicode="&#xe2;" horiz-adv-x="579" d="M273 456q-74 0 -157 -38l-23 63q94 43 188 43q106 0 163 -53t57 -155v-316h-74v78q-68 -89 -187 -89q-78 0 -132 41q-61 45 -61 121q0 81 60 124.5t161 43.5q81 0 159 -22v18q0 141 -154 141zM276 262q-72 0 -111.5 -29t-39.5 -79q0 -48 39 -77q36 -27 91 -27 q72 0 122.5 39.5t50.5 100.5v50q-76 22 -152 22zM290 662l-75 -67h-64l106 131h68l106 -131h-66z" />
<glyph unicode="&#xe3;" horiz-adv-x="579" d="M273 456q-74 0 -157 -38l-23 63q94 43 188 43q106 0 163 -53t57 -155v-316h-74v78q-68 -89 -187 -89q-78 0 -132 41q-61 45 -61 121q0 81 60 124.5t161 43.5q81 0 159 -22v18q0 141 -154 141zM276 262q-72 0 -111.5 -29t-39.5 -79q0 -48 39 -77q36 -27 91 -27 q72 0 122.5 39.5t50.5 100.5v50q-76 22 -152 22zM456 700q-28 -105 -95 -105q-24 0 -71 20t-63 20q-32 0 -52 -49l-47 13q28 105 95 105q24 0 71 -20t63 -20q32 0 52 49z" />
<glyph unicode="&#xe4;" horiz-adv-x="579" d="M273 456q-74 0 -157 -38l-23 63q94 43 188 43q106 0 163 -53t57 -155v-316h-74v78q-68 -89 -187 -89q-78 0 -132 41q-61 45 -61 121q0 81 60 124.5t161 43.5q81 0 159 -22v18q0 141 -154 141zM276 262q-72 0 -111.5 -29t-39.5 -79q0 -48 39 -77q36 -27 91 -27 q72 0 122.5 39.5t50.5 100.5v50q-76 22 -152 22zM424 595h-90v95h90v-95zM248 595h-90v95h90v-95z" />
<glyph unicode="&#xe5;" horiz-adv-x="579" d="M273 456q-74 0 -157 -38l-23 63q94 43 188 43q106 0 163 -53t57 -155v-316h-74v78q-68 -89 -187 -89q-78 0 -132 41q-61 45 -61 121q0 81 60 124.5t161 43.5q81 0 159 -22v18q0 141 -154 141zM276 262q-72 0 -111.5 -29t-39.5 -79q0 -48 39 -77q36 -27 91 -27 q72 0 122.5 39.5t50.5 100.5v50q-76 22 -152 22zM395 693q0 -41 -31 -70.5t-73 -29.5t-73 29.5t-31 70.5t31 70.5t73 29.5t73 -29.5t31 -70.5zM353 693q0 26 -18 44t-44 18q-25 0 -43.5 -18t-18.5 -44q0 -25 18.5 -43.5t43.5 -18.5q26 0 44 18.5t18 43.5z" />
<glyph unicode="&#xe6;" horiz-adv-x="953" d="M468 92q-99 -103 -226 -103q-81 0 -135 41q-60 45 -60 121q0 80 61 125q58 43 156 43q75 0 153 -22v18q0 141 -149 141q-69 0 -152 -38l-23 63q94 43 183 43q151 0 190 -111q68 115 198 115q111 0 178 -80q63 -76 63 -194q0 -6 -2 -24h-409q8 -81 61 -129q50 -46 120 -46 q93 0 163 73l48 -43q-85 -97 -213 -97q-131 0 -205 104zM493 287h333q-6 76 -47 123q-44 53 -117 53q-68 0 -114.5 -49.5t-54.5 -126.5zM416 241q-80 21 -144 21q-70 0 -108.5 -28.5t-38.5 -78.5q0 -48 36 -76t90 -28q104 0 186 92q-18 45 -21 98z" />
<glyph unicode="&#xe7;" horiz-adv-x="571" d="M271 -7q-94 16 -155.5 91t-61.5 173q0 112 76.5 191.5t188.5 79.5q120 0 207 -92l-51 -54q-74 78 -157 78q-78 0 -131.5 -58.5t-53.5 -142.5q0 -85 54.5 -143.5t135.5 -58.5q86 0 158 77l49 -46q-85 -94 -196 -100l-66 -143l-75 34z" />
<glyph unicode="&#xe8;" horiz-adv-x="592" d="M132 230q8 -81 61 -129q50 -46 121 -46q93 0 163 73l48 -43q-87 -97 -213 -97q-109 0 -182 75q-76 76 -76 195q0 113 71 191.5t177 78.5q111 0 178 -80q63 -76 63 -194q0 -15 -1 -24h-410zM132 287h333q-6 76 -47 123q-45 53 -118 53q-67 0 -113.5 -50t-54.5 -126z M276 595l-113 108l80 37l95 -145h-62z" />
<glyph unicode="&#xe9;" horiz-adv-x="592" d="M132 230q8 -81 61 -129q50 -46 121 -46q93 0 163 73l48 -43q-87 -97 -213 -97q-109 0 -182 75q-76 76 -76 195q0 113 71 191.5t177 78.5q111 0 178 -80q63 -76 63 -194q0 -15 -1 -24h-410zM132 287h333q-6 76 -47 123q-45 53 -118 53q-67 0 -113.5 -50t-54.5 -126z M316 595h-62l95 145l80 -37z" />
<glyph unicode="&#xea;" horiz-adv-x="592" d="M132 230q8 -81 61 -129q50 -46 121 -46q93 0 163 73l48 -43q-87 -97 -213 -97q-109 0 -182 75q-76 76 -76 195q0 113 71 191.5t177 78.5q111 0 178 -80q63 -76 63 -194q0 -15 -1 -24h-410zM132 287h333q-6 76 -47 123q-45 53 -118 53q-67 0 -113.5 -50t-54.5 -126z M298 662l-75 -67h-64l106 131h68l106 -131h-66z" />
<glyph unicode="&#xeb;" horiz-adv-x="592" d="M132 230q8 -81 61 -129q50 -46 121 -46q93 0 163 73l48 -43q-87 -97 -213 -97q-109 0 -182 75q-76 76 -76 195q0 113 71 191.5t177 78.5q111 0 178 -80q63 -76 63 -194q0 -15 -1 -24h-410zM132 287h333q-6 76 -47 123q-45 53 -118 53q-67 0 -113.5 -50t-54.5 -126z M432 595h-90v95h90v-95zM256 595h-90v95h90v-95z" />
<glyph unicode="&#xec;" horiz-adv-x="263" d="M170 0h-77v517h77v-517zM102 595l-113 108l80 37l95 -145h-62z" />
<glyph unicode="&#xed;" horiz-adv-x="263" d="M170 0h-77v517h77v-517zM162 595h-62l95 145l80 -37z" />
<glyph unicode="&#xee;" horiz-adv-x="263" d="M170 0h-77v517h77v-517zM130 662l-75 -67h-64l106 131h68l106 -131h-66z" />
<glyph unicode="&#xef;" horiz-adv-x="263" d="M170 0h-77v517h77v-517zM264 595h-90v95h90v-95zM88 595h-90v95h90v-95z" />
<glyph unicode="&#xf0;" horiz-adv-x="633" d="M322 615l-128 -63l-36 47l131 61l-50 70h92l26 -39l99 48l35 -47l-102 -47l101 -149q88 -130 88 -244q0 -109 -72 -185q-75 -79 -194 -79q-110 0 -184 75.5t-74 182.5q0 105 71 174q68 66 166 66q84 0 162 -55zM499 244q0 75 -54.5 128t-135.5 53q-80 0 -128.5 -52 t-48.5 -130q0 -75 53 -131t132 -56q80 0 131 55t51 133z" />
<glyph unicode="&#xf1;" horiz-adv-x="616" d="M163 296v-296h-77v517h77v-90q61 101 177 101q92 0 145 -56.5t53 -150.5v-321h-77v302q0 73 -37.5 114.5t-105.5 41.5q-67 0 -111 -45t-44 -117zM476 700q-28 -105 -95 -105q-24 0 -71 20t-63 20q-32 0 -52 -49l-47 13q28 105 95 105q24 0 71 -20t63 -20q32 0 52 49z" />
<glyph unicode="&#xf2;" horiz-adv-x="646" d="M593 259q0 -112 -78 -191.5t-193 -79.5t-191.5 78.5t-76.5 190.5t77.5 191.5t192.5 79.5t192 -78.5t77 -190.5zM514 257q0 85 -55.5 144t-136.5 59q-83 0 -136 -58t-53 -143t55 -143.5t136 -58.5q83 0 136.5 58t53.5 142zM292 595l-113 108l80 37l95 -145h-62z" />
<glyph unicode="&#xf3;" horiz-adv-x="646" d="M593 259q0 -112 -78 -191.5t-193 -79.5t-191.5 78.5t-76.5 190.5t77.5 191.5t192.5 79.5t192 -78.5t77 -190.5zM514 257q0 85 -55.5 144t-136.5 59q-83 0 -136 -58t-53 -143t55 -143.5t136 -58.5q83 0 136.5 58t53.5 142zM355 595h-62l95 145l80 -37z" />
<glyph unicode="&#xf4;" horiz-adv-x="646" d="M593 259q0 -112 -78 -191.5t-193 -79.5t-191.5 78.5t-76.5 190.5t77.5 191.5t192.5 79.5t192 -78.5t77 -190.5zM514 257q0 85 -55.5 144t-136.5 59q-83 0 -136 -58t-53 -143t55 -143.5t136 -58.5q83 0 136.5 58t53.5 142zM322 662l-75 -67h-64l106 131h68l106 -131h-66z " />
<glyph unicode="&#xf5;" horiz-adv-x="646" d="M593 259q0 -112 -78 -191.5t-193 -79.5t-191.5 78.5t-76.5 190.5t77.5 191.5t192.5 79.5t192 -78.5t77 -190.5zM514 257q0 85 -55.5 144t-136.5 59q-83 0 -136 -58t-53 -143t55 -143.5t136 -58.5q83 0 136.5 58t53.5 142zM487 700q-28 -105 -95 -105q-24 0 -71 20t-63 20 q-32 0 -52 -49l-47 13q28 105 95 105q24 0 71 -20t63 -20q32 0 52 49z" />
<glyph unicode="&#xf6;" horiz-adv-x="646" d="M593 259q0 -112 -78 -191.5t-193 -79.5t-191.5 78.5t-76.5 190.5t77.5 191.5t192.5 79.5t192 -78.5t77 -190.5zM514 257q0 85 -55.5 144t-136.5 59q-83 0 -136 -58t-53 -143t55 -143.5t136 -58.5q83 0 136.5 58t53.5 142zM456 595h-90v95h90v-95zM280 595h-90v95h90v-95z " />
<glyph unicode="&#xf8;" horiz-adv-x="646" d="M593 259q0 -112 -78 -191.5t-193 -79.5q-90 0 -161 53l-45 -46h-77l79 85q-64 77 -64 177q0 112 77.5 191.5t192.5 79.5q93 0 161 -54l45 49h78l-80 -86q65 -75 65 -178zM438 419q-48 42 -116 42q-83 0 -137 -58t-54 -144q0 -70 39 -123zM515 257q0 71 -39 124l-268 -285 q50 -41 116 -41q84 0 137.5 58t53.5 144z" />
<glyph unicode="&#xf9;" horiz-adv-x="616" d="M453 221v296h76v-517h-76v90q-63 -101 -177 -101q-92 0 -145 56.5t-53 150.5v321h77v-302q0 -73 37.5 -114.5t105.5 -41.5q67 0 111 45t44 117zM284 591l-113 108l80 37l95 -145h-62z" />
<glyph unicode="&#xfa;" horiz-adv-x="616" d="M453 221v296h76v-517h-76v90q-63 -101 -177 -101q-92 0 -145 56.5t-53 150.5v321h77v-302q0 -73 37.5 -114.5t105.5 -41.5q67 0 111 45t44 117zM328 591h-62l95 145l80 -37z" />
<glyph unicode="&#xfb;" horiz-adv-x="616" d="M453 221v296h76v-517h-76v90q-63 -101 -177 -101q-92 0 -145 56.5t-53 150.5v321h77v-302q0 -73 37.5 -114.5t105.5 -41.5q67 0 111 45t44 117zM308 662l-75 -67h-64l106 131h68l106 -131h-66z" />
<glyph unicode="&#xfc;" horiz-adv-x="616" d="M453 221v296h76v-517h-76v90q-63 -101 -177 -101q-92 0 -145 56.5t-53 150.5v321h77v-302q0 -73 37.5 -114.5t105.5 -41.5q67 0 111 45t44 117zM442 595h-90v95h90v-95zM266 595h-90v95h90v-95z" />
<glyph unicode="&#xfd;" horiz-adv-x="591" d="M555 517l-217 -534q-32 -79 -72.5 -112.5t-99.5 -33.5q-56 0 -110 26l26 61q37 -19 81 -19q35 0 59 21.5t47 75.5l-235 515h85l188 -431l166 431h82zM329 591h-62l95 145l80 -37z" />
<glyph unicode="&#xfe;" horiz-adv-x="664" d="M608 259q0 -122 -77 -199q-71 -71 -170 -71q-122 0 -198 110v-259h-77v890h77v-317q78 115 198 115q99 0 170 -70q77 -77 77 -199zM529 258q0 90 -54 147q-52 54 -128 54q-75 0 -129 -55q-58 -58 -58 -145q0 -88 58 -146q54 -55 129 -55q78 0 130 54t52 146z" />
<glyph unicode="&#xff;" horiz-adv-x="591" d="M555 517l-217 -534q-32 -79 -72.5 -112.5t-99.5 -33.5q-56 0 -110 26l26 61q37 -19 81 -19q35 0 59 21.5t47 75.5l-235 515h85l188 -431l166 431h82zM429 595h-90v95h90v-95zM253 595h-90v95h90v-95z" />
<glyph unicode="&#x131;" horiz-adv-x="263" d="M170 0h-77v517h77v-517z" />
<glyph unicode="&#x152;" horiz-adv-x="1131" d="M1071 0h-631q-163 0 -267.5 99.5t-104.5 249.5t104.5 250.5t267.5 100.5h626v-72h-409v-239h364v-72h-364v-245h414v-72zM578 73v554h-138q-130 0 -210 -78.5t-80 -197.5t79 -197q81 -81 211 -81h138z" />
<glyph unicode="&#x153;" horiz-adv-x="1049" d="M548 128q-32 -63 -93 -101.5t-136 -38.5q-112 0 -188.5 79t-76.5 190t77.5 191t190.5 80q75 0 135 -38t92 -101q30 64 85.5 101.5t126.5 37.5q110 0 176 -80q63 -76 63 -194q0 -15 -1 -24h-409q8 -81 61 -129q49 -46 120 -46q93 0 163 73l48 -43q-85 -97 -212 -97 q-72 0 -131.5 37.5t-90.5 102.5zM589 287h333q-6 76 -47 123q-44 53 -117 53q-68 0 -114.5 -49.5t-54.5 -126.5zM511 257q0 85 -54.5 144t-135.5 59q-82 0 -135 -58t-53 -143q0 -84 54.5 -143t135.5 -59q82 0 135 57.5t53 142.5z" />
<glyph unicode="&#x178;" horiz-adv-x="716" d="M398 278v-278h-80v277l-291 423h96l236 -350l238 350h92zM491 759h-90v95h90v-95zM315 759h-90v95h90v-95z" />
<glyph unicode="&#x2c6;" d="M249 662l-75 -67h-64l106 131h68l106 -131h-66z" />
<glyph unicode="&#x2da;" d="M354 693q0 -41 -31 -70.5t-73 -29.5t-73 29.5t-31 70.5t31 70.5t73 29.5t73 -29.5t31 -70.5zM312 693q0 26 -18 44t-44 18q-25 0 -43.5 -18t-18.5 -44q0 -25 18.5 -43.5t43.5 -18.5q26 0 44 18.5t18 43.5z" />
<glyph unicode="&#x2dc;" d="M414 700q-28 -105 -95 -105q-24 0 -71 20t-63 20q-32 0 -52 -49l-47 13q28 105 95 105q24 0 71 -20t63 -20q32 0 52 49z" />
<glyph unicode="&#x2000;" horiz-adv-x="453" />
<glyph unicode="&#x2001;" horiz-adv-x="907" />
<glyph unicode="&#x2002;" horiz-adv-x="453" />
<glyph unicode="&#x2003;" horiz-adv-x="907" />
<glyph unicode="&#x2004;" horiz-adv-x="302" />
<glyph unicode="&#x2005;" horiz-adv-x="226" />
<glyph unicode="&#x2006;" horiz-adv-x="151" />
<glyph unicode="&#x2007;" horiz-adv-x="151" />
<glyph unicode="&#x2008;" horiz-adv-x="113" />
<glyph unicode="&#x2009;" horiz-adv-x="181" />
<glyph unicode="&#x200a;" horiz-adv-x="50" />
<glyph unicode="&#x2013;" horiz-adv-x="528" d="M463 262h-398v77h398v-77z" />
<glyph unicode="&#x2014;" horiz-adv-x="898" d="M833 262h-768v77h768v-77z" />
<glyph unicode="&#x2018;" horiz-adv-x="245" d="M194 670q-67 -25 -67 -81v-6h37v-105h-92v90q0 60 26 92t84 45z" />
<glyph unicode="&#x2019;" horiz-adv-x="245" d="M51 508q67 24 67 78v9h-36v105h92v-90q0 -112 -111 -137z" />
<glyph unicode="&#x201a;" horiz-adv-x="245" d="M46 -87q67 24 67 78v9h-36v105h92v-90q0 -112 -111 -137z" />
<glyph unicode="&#x201c;" horiz-adv-x="445" d="M194 670q-67 -25 -67 -81v-6h37v-105h-92v90q0 60 26 92t84 45zM394 670q-67 -25 -67 -81v-6h36v-105h-91v90q0 60 26 92t84 45z" />
<glyph unicode="&#x201d;" horiz-adv-x="445" d="M51 508q67 24 67 78v9h-36v105h92v-90q0 -112 -111 -137zM251 508q67 24 67 78v9h-36v105h91v-90q0 -60 -26 -92t-84 -45z" />
<glyph unicode="&#x201e;" horiz-adv-x="445" d="M46 -87q67 24 67 78v9h-36v105h92v-90q0 -112 -111 -137zM246 -87q67 24 67 78v9h-36v105h91v-90q0 -60 -26 -92t-84 -45z" />
<glyph unicode="&#x2022;" horiz-adv-x="478" d="M370 352q0 -54 -38.5 -92.5t-92.5 -38.5t-92.5 38.5t-38.5 92.5t38.5 92.5t92.5 38.5t92.5 -38.5t38.5 -92.5z" />
<glyph unicode="&#x2026;" horiz-adv-x="723" d="M647 0h-90v103h90v-103zM406 0h-89v103h89v-103zM166 0h-89v103h89v-103z" />
<glyph unicode="&#x202f;" horiz-adv-x="181" />
<glyph unicode="&#x2039;" horiz-adv-x="328" d="M210 476l59 -33l-135 -183l135 -185l-59 -34l-162 214v8z" />
<glyph unicode="&#x203a;" horiz-adv-x="328" d="M117 41l-58 33l135 184l-135 184l58 34l162 -213v-8z" />
<glyph unicode="&#x205f;" horiz-adv-x="226" />
<glyph unicode="&#x2122;" horiz-adv-x="690" d="M605 628l-110 -167h-6l-109 167v-236h-44v308h47l110 -169l109 169h46v-308h-43v236zM169 658v-266h-44v266h-99v42h242v-42h-99z" />
</font>
</defs>
</svg>
